<svg xmlns="http://www.w3.org/2000/svg" xmlns:xlink="http://www.w3.org/1999/xlink" width="969" zoomAndPan="magnify" viewBox="0 0 726.75 326.999992" height="436" preserveAspectRatio="xMidYMid meet" version="1.0"><defs><filter x="0%" y="0%" width="100%" height="100%" id="b4399eaf08"><feColorMatrix values="0 0 0 0 1 0 0 0 0 1 0 0 0 0 1 0 0 0 1 0" color-interpolation-filters="sRGB"/></filter><g/><mask id="6148a8b6f5"><g filter="url(#b4399eaf08)"><rect x="-72.675" width="872.1" fill="#000000" y="-32.699999" height="392.39999" fill-opacity="0.2"/></g></mask><clipPath id="989480cf70"><path d="M 0.425781 0.441406 L 413.804688 0.441406 L 413.804688 147.511719 L 0.425781 147.511719 Z M 0.425781 0.441406 " clip-rule="nonzero"/></clipPath><clipPath id="3ba7e97996"><rect x="0" width="414" y="0" height="148"/></clipPath><clipPath id="d65ab3f6cf"><path d="M 38.144531 80 L 276 80 L 276 288.804688 L 38.144531 288.804688 Z M 38.144531 80 " clip-rule="nonzero"/></clipPath><clipPath id="1e88c41f56"><path d="M 38.144531 237 L 90 237 L 90 288.804688 L 38.144531 288.804688 Z M 38.144531 237 " clip-rule="nonzero"/></clipPath><clipPath id="89bb3cf75d"><path d="M 226 37.554688 L 295 37.554688 L 295 211 L 226 211 Z M 226 37.554688 " clip-rule="nonzero"/></clipPath><clipPath id="3969537a5d"><path d="M 247 37.554688 L 689.144531 37.554688 L 689.144531 214 L 247 214 Z M 247 37.554688 " clip-rule="nonzero"/></clipPath></defs><g mask="url(#6148a8b6f5)"><g transform="matrix(1, 0, 0, 1, 275, 38)"><g clip-path="url(#3ba7e97996)"><g clip-path="url(#989480cf70)"><path fill="#071424" d="M 0.914062 0.609375 L 174.949219 0.609375 L 187.164062 12.804688 L 413.179688 12.804688 L 413.179688 134.65625 L 246.992188 134.65625 L 234.417969 147.207031 L 0.914062 147.207031 Z M 0.914062 0.609375 " fill-opacity="1" fill-rule="nonzero"/></g></g></g></g><g clip-path="url(#d65ab3f6cf)"><path stroke-linecap="butt" transform="matrix(0.495321, 0, 0, 0.494493, -7.819455, -33.626945)" fill="none" stroke-linejoin="miter" d="M 127.866825 609.719532 L 326.593838 287.877791 L 514.508725 287.877791 " stroke="#01ffff" stroke-width="4" stroke-opacity="1" stroke-miterlimit="10"/></g><g clip-path="url(#1e88c41f56)"><path stroke-linecap="butt" transform="matrix(0.495321, 0, 0, 0.494493, -7.819455, -33.626945)" fill="none" stroke-linejoin="miter" d="M 139.12847 627.777806 C 139.12847 629.231316 138.986516 630.676926 138.702609 632.098837 C 138.418702 633.528648 138.000728 634.911062 137.4408 636.253978 C 136.888759 637.596894 136.20265 638.868715 135.398247 640.07734 C 134.593844 641.285965 133.671146 642.407695 132.645926 643.434631 C 131.620707 644.461567 130.500851 645.377909 129.294247 646.191559 C 128.079756 646.997309 126.802174 647.676666 125.461502 648.237531 C 124.12083 648.790497 122.73284 649.209171 121.305419 649.493553 C 119.885884 649.777935 118.44269 649.920126 116.99161 649.920126 C 115.532644 649.920126 114.097336 649.777935 112.669915 649.493553 C 111.242493 649.209171 109.86239 648.790497 108.513832 648.237531 C 107.17316 647.676666 105.895578 646.997309 104.688973 646.191559 C 103.482369 645.377909 102.362513 644.461567 101.337294 643.434631 C 100.304188 642.407695 99.389376 641.285965 98.584973 640.07734 C 97.772684 638.868715 97.094461 637.596894 96.534534 636.253978 C 95.982492 634.911062 95.556632 633.528648 95.272725 632.098837 C 94.988818 630.676926 94.846864 629.231316 94.846864 627.777806 C 94.846864 626.324297 94.988818 624.886587 95.272725 623.456776 C 95.556632 622.034864 95.982492 620.652451 96.534534 619.309534 C 97.094461 617.966618 97.772684 616.686898 98.584973 615.478273 C 99.389376 614.269648 100.304188 613.155818 101.337294 612.120982 C 102.362513 611.094046 103.482369 610.177703 104.688973 609.371954 C 105.895578 608.566204 107.17316 607.878947 108.513832 607.325981 C 109.86239 606.765116 111.242493 606.346442 112.669915 606.06206 C 114.097336 605.785577 115.532644 605.643386 116.99161 605.643386 C 118.44269 605.643386 119.885884 605.785577 121.305419 606.06206 C 122.73284 606.346442 124.12083 606.765116 125.461502 607.325981 C 126.802174 607.878947 128.079756 608.566204 129.294247 609.371954 C 130.500851 610.177703 131.620707 611.094046 132.645926 612.120982 C 133.671146 613.155818 134.593844 614.269648 135.398247 615.478273 C 136.20265 616.686898 136.888759 617.966618 137.4408 619.309534 C 138.000728 620.652451 138.418702 622.034864 138.702609 623.456776 C 138.986516 624.886587 139.12847 626.324297 139.12847 627.777806 Z M 139.12847 627.777806 " stroke="#01ffff" stroke-width="4" stroke-opacity="1" stroke-miterlimit="10"/></g><g clip-path="url(#89bb3cf75d)"><path stroke-linecap="butt" transform="matrix(0.495321, 0, 0, 0.494493, -7.819455, -33.626945)" fill="none" stroke-linejoin="miter" d="M 552.851942 437.676155 L 552.851942 365.316665 L 530.170928 342.637178 L 530.170928 284.323013 L 530.170928 299.44267 L 530.170928 227.08318 L 552.851942 204.403694 L 552.851942 146.081629 " stroke="#01ffff" stroke-width="4" stroke-opacity="1" stroke-miterlimit="10"/></g><path fill="#071424" d="M 266.671875 71.066406 L 259.9375 77.792969 L 259.9375 137.691406 L 266.40625 144.148438 Z M 266.671875 71.066406 " fill-opacity="1" fill-rule="nonzero"/><g clip-path="url(#3969537a5d)"><path stroke-linecap="butt" transform="matrix(0.495321, 0, 0, 0.494493, -7.819455, -33.626945)" fill="none" stroke-linejoin="miter" d="M 572.827954 146.081629 L 924.186523 146.081629 L 948.847 170.743892 L 1405.148636 170.743892 L 1405.148636 417.161133 L 1069.633655 417.161133 L 1044.247638 442.542251 L 572.827954 442.542251 Z M 572.827954 146.081629 " stroke="#01ffff" stroke-width="4" stroke-opacity="1" stroke-miterlimit="10"/></g><g fill="#ffffff" fill-opacity="1"><g transform="translate(329.020261, 129.680174)"><g/></g></g><g fill="#ffffff" fill-opacity="1"><g transform="translate(346.92647, 129.717598)"><g><path d="M 25.5625 -39.15625 L 41.71875 -1.859375 L 41.71875 0.09375 L 36.6875 0.078125 L 32.15625 -10.578125 L 10.828125 -10.625 L 6.265625 0.015625 L 1.40625 0 L 1.40625 -1.953125 L 17.4375 -39.171875 Z M 12.859375 -15.375 L 30.109375 -15.34375 L 22.03125 -34.390625 L 21.015625 -34.390625 Z M 12.859375 -15.375 "/></g></g></g><g fill="#ffffff" fill-opacity="1"><g transform="translate(388.92035, 129.805366)"><g><path d="M 5.59375 0.015625 L 5.671875 -39.1875 L 32 -39.140625 L 39.265625 -31.84375 L 39.25 -19.796875 L 31.953125 -12.53125 L 10.953125 -12.578125 L 10.921875 0.015625 Z M 10.953125 -17.34375 L 29.4375 -17.296875 L 33.921875 -21.78125 L 33.9375 -29.890625 L 29.484375 -34.375 L 11 -34.421875 Z M 10.953125 -17.34375 "/></g></g></g><g fill="#ffffff" fill-opacity="1"><g transform="translate(430.074351, 129.891378)"><g><path d="M 3.359375 0 L 3.375 -4.484375 L 11.21875 -4.46875 L 11.28125 -34.703125 L 3.4375 -34.71875 L 3.4375 -39.203125 L 24.4375 -39.15625 L 24.4375 -34.671875 L 16.59375 -34.6875 L 16.53125 -4.453125 L 24.375 -4.4375 L 24.359375 0.046875 Z M 3.359375 0 "/></g></g></g><g fill="#ffffff" fill-opacity="1"><g transform="translate(456.670422, 129.946964)"><g/></g></g><g fill="#ffffff" fill-opacity="1"><g transform="translate(474.58772, 129.984412)"><g><path d="M 5.59375 0.015625 L 5.671875 -39.1875 L 33.390625 -39.140625 L 41.21875 -31.28125 L 41.171875 -7.765625 L 33.3125 0.0625 Z M 10.9375 -4.75 L 30.8125 -4.703125 L 35.859375 -9.71875 L 35.90625 -29.328125 L 30.875 -34.375 L 11 -34.421875 Z M 10.9375 -4.75 "/></g></g></g><g fill="#ffffff" fill-opacity="1"><g transform="translate(519.101255, 130.077446)"><g><path d="M 12.3125 0.03125 L 4.5 -7.828125 L 4.546875 -31.34375 L 12.390625 -39.171875 L 34.234375 -39.125 L 42.0625 -31.265625 L 42.015625 -7.75 L 34.15625 0.078125 Z M 14.859375 -4.734375 L 31.65625 -4.703125 L 36.703125 -9.71875 L 36.75 -29.328125 L 31.71875 -34.375 L 14.921875 -34.40625 L 9.859375 -29.390625 L 9.8125 -9.78125 Z M 14.859375 -4.734375 "/></g></g></g><g fill="#ffffff" fill-opacity="1"><g transform="translate(564.45467, 130.172235)"><g><path d="M 12.3125 0.03125 L 4.5 -7.828125 L 4.546875 -31.34375 L 12.390625 -39.171875 L 37.03125 -39.125 L 37.03125 -34.359375 L 14.921875 -34.40625 L 9.859375 -29.390625 L 9.8125 -9.78125 L 14.859375 -4.734375 L 36.96875 -4.6875 L 36.953125 0.078125 Z M 12.3125 0.03125 "/></g></g></g><g fill="#ffffff" fill-opacity="1"><g transform="translate(603.089033, 130.252981)"><g><path d="M 4.765625 0.015625 L 4.78125 -6.421875 L 11.21875 -6.421875 L 11.203125 0.015625 Z M 4.765625 0.015625 "/></g></g></g></svg>