<svg xmlns="http://www.w3.org/2000/svg" xmlns:xlink="http://www.w3.org/1999/xlink" width="914" zoomAndPan="magnify" viewBox="0 0 685.5 186.749996" height="249" preserveAspectRatio="xMidYMid meet" version="1.0"><defs><filter x="0%" y="0%" width="100%" height="100%" id="2095f2d314"><feColorMatrix values="0 0 0 0 1 0 0 0 0 1 0 0 0 0 1 0 0 0 1 0" color-interpolation-filters="sRGB"/></filter><g/><mask id="a879548fb0"><g filter="url(#2095f2d314)"><rect x="-68.55" width="822.6" fill="#000000" y="-18.675" height="224.099995" fill-opacity="0.6196"/></g></mask><clipPath id="b5a5efa5d6"><path d="M 0.332031 0.871094 L 609.710938 0.871094 L 609.710938 111.636719 L 0.332031 111.636719 Z M 0.332031 0.871094 " clip-rule="nonzero"/></clipPath><clipPath id="519c883571"><rect x="0" width="610" y="0" height="113"/></clipPath></defs><g mask="url(#a879548fb0)"><g transform="matrix(1, 0, 0, 1, 38, 37)"><g clip-path="url(#519c883571)"><path fill="#071424" d="M 546.824219 7.429688 L 63.21875 7.429688 L 13.25 57.511719 L 63.339844 107.589844 L 546.699219 107.589844 L 596.792969 57.511719 Z M 546.824219 7.429688 " fill-opacity="1" fill-rule="nonzero"/><g clip-path="url(#b5a5efa5d6)"><path fill="#33ffe1" d="M 62.730469 93.699219 L 202.523438 93.699219 L 202.523438 96.257812 L 61.636719 96.257812 L 21.539062 56.046875 L 61.636719 15.960938 L 146.21875 15.960938 L 146.21875 18.519531 L 62.730469 18.519531 L 25.074219 56.046875 Z M 584.96875 56.046875 L 547.308594 93.699219 L 463.824219 93.699219 L 463.824219 96.257812 L 548.40625 96.257812 L 588.503906 56.171875 L 548.40625 16.082031 L 407.640625 16.082031 L 407.640625 18.640625 L 547.433594 18.640625 Z M 0.332031 56.046875 L 55.417969 111.125 L 96.125 111.125 L 96.125 103.570312 L 58.589844 103.570312 L 10.933594 56.046875 L 58.589844 8.527344 L 260.171875 8.527344 L 260.171875 0.972656 L 55.417969 0.972656 Z M 554.621094 0.972656 L 513.917969 0.972656 L 513.917969 8.527344 L 551.453125 8.527344 L 599.105469 56.171875 L 551.453125 103.8125 L 349.871094 103.8125 L 349.871094 111.367188 L 554.621094 111.367188 L 609.710938 56.046875 Z M 554.621094 0.972656 " fill-opacity="1" fill-rule="nonzero"/></g></g></g></g><g fill="#ffffff" fill-opacity="1"><g transform="translate(151.842451, 107.394709)"><g/></g></g><g fill="#ffffff" fill-opacity="1"><g transform="translate(169.737765, 107.432111)"><g><path d="M 5.59375 0.015625 L 5.671875 -39.15625 L 37 -39.09375 L 37 -34.328125 L 10.984375 -34.390625 L 10.953125 -20.6875 L 31.375 -20.640625 L 31.359375 -15.890625 L 10.9375 -15.9375 L 10.90625 0.015625 Z M 5.59375 0.015625 "/></g></g></g><g fill="#ffffff" fill-opacity="1"><g transform="translate(206.66988, 107.509299)"><g><path d="M 5.59375 0.015625 L 5.671875 -39.15625 L 32.25 -39.109375 L 39.515625 -31.8125 L 39.5 -21.1875 L 32.203125 -13.921875 L 40.734375 -1.875 L 40.734375 0.078125 L 35.59375 0.078125 L 25.765625 -13.9375 L 10.9375 -13.96875 L 10.90625 0.015625 Z M 10.9375 -18.734375 L 29.6875 -18.6875 L 34.171875 -23.140625 L 34.1875 -29.859375 L 29.734375 -34.34375 L 10.984375 -34.390625 Z M 10.9375 -18.734375 "/></g></g></g><g fill="#ffffff" fill-opacity="1"><g transform="translate(249.645452, 107.599119)"><g><path d="M 12.3125 0.03125 L 4.484375 -7.8125 L 4.53125 -31.3125 L 12.390625 -39.140625 L 34.203125 -39.09375 L 42.03125 -31.234375 L 41.984375 -7.734375 L 34.125 0.078125 Z M 14.84375 -4.71875 L 31.625 -4.6875 L 36.671875 -9.71875 L 36.71875 -29.296875 L 31.6875 -34.34375 L 14.90625 -34.375 L 9.859375 -29.359375 L 9.8125 -9.78125 Z M 14.84375 -4.71875 "/></g></g></g><g fill="#ffffff" fill-opacity="1"><g transform="translate(294.971266, 107.693851)"><g><path d="M 5.59375 0.015625 L 5.671875 -39.15625 L 15.1875 -39.140625 L 34.421875 -4.953125 L 35.4375 -4.953125 L 35.5 -39.09375 L 40.640625 -39.09375 L 40.5625 0.078125 L 31.046875 0.0625 L 11.828125 -34.09375 L 10.828125 -34.109375 L 10.75 0.015625 Z M 5.59375 0.015625 "/></g></g></g><g fill="#ffffff" fill-opacity="1"><g transform="translate(340.017287, 107.787997)"><g><path d="M 15.953125 0.03125 L 16.03125 -34.375 L 0.640625 -34.40625 L 0.640625 -39.171875 L 36.734375 -39.09375 L 36.734375 -34.328125 L 21.34375 -34.359375 L 21.265625 0.046875 Z M 15.953125 0.03125 "/></g></g></g><g fill="#ffffff" fill-opacity="1"><g transform="translate(376.110025, 107.863432)"><g/></g></g><g fill="#ffffff" fill-opacity="1"><g transform="translate(394.01641, 107.900856)"><g><path d="M 5.59375 0.015625 L 5.671875 -39.15625 L 32.25 -39.109375 L 39.515625 -31.8125 L 39.5 -21.1875 L 32.203125 -13.921875 L 40.734375 -1.875 L 40.734375 0.078125 L 35.59375 0.078125 L 25.765625 -13.9375 L 10.9375 -13.96875 L 10.90625 0.015625 Z M 10.9375 -18.734375 L 29.6875 -18.6875 L 34.171875 -23.140625 L 34.1875 -29.859375 L 29.734375 -34.34375 L 10.984375 -34.390625 Z M 10.9375 -18.734375 "/></g></g></g><g fill="#ffffff" fill-opacity="1"><g transform="translate(436.991985, 107.990676)"><g><path d="M 5.59375 0.015625 L 5.671875 -39.15625 L 38.125 -39.09375 L 38.125 -34.328125 L 10.984375 -34.390625 L 10.953125 -22.078125 L 31.9375 -22.03125 L 31.921875 -17.28125 L 10.9375 -17.328125 L 10.921875 -4.734375 L 38.625 -4.671875 L 38.609375 0.078125 Z M 5.59375 0.015625 "/></g></g></g><g fill="#ffffff" fill-opacity="1"><g transform="translate(476.721985, 108.073712)"><g><path d="M 5.59375 0.015625 L 5.671875 -39.15625 L 31.96875 -39.109375 L 39.234375 -31.8125 L 39.21875 -19.78125 L 31.921875 -12.53125 L 10.9375 -12.578125 L 10.90625 0.015625 Z M 10.9375 -17.328125 L 29.40625 -17.28125 L 33.90625 -21.765625 L 33.921875 -29.875 L 29.453125 -34.34375 L 10.984375 -34.390625 Z M 10.9375 -17.328125 "/></g></g></g><g fill="#ffffff" fill-opacity="1"><g transform="translate(517.850947, 108.159672)"><g><path d="M 4.75 0.015625 L 4.765625 -6.421875 L 11.203125 -6.421875 L 11.1875 0.015625 Z M 4.75 0.015625 "/></g></g></g></svg>